<svg id="图层_1" data-name="图层 1" xmlns="http://www.w3.org/2000/svg" xmlns:xlink="http://www.w3.org/1999/xlink" viewBox="0 0 511.81 635.26"><defs><style>.cls-1{fill:gray;}.cls-1,.cls-2,.cls-3,.cls-4,.cls-5{stroke:#000;stroke-miterlimit:10;}.cls-2{fill:url(#未命名的渐变_2);}.cls-3{fill:url(#白色_黑色);}.cls-4{fill:#fff;}</style><linearGradient id="未命名的渐变_2" x1="283.46" y1="313.85" x2="425.62" y2="313.85" gradientUnits="userSpaceOnUse"><stop offset="0"/><stop offset="1" stop-color="#fff"/></linearGradient><linearGradient id="白色_黑色" x1="427.69" y1="313.87" x2="566.93" y2="313.87" gradientUnits="userSpaceOnUse"><stop offset="0" stop-color="#fff"/><stop offset="1"/></linearGradient></defs><title>空想之国Logo</title><path class="cls-1" d="M604.94,316.25c1.3,72.1,3.19,353.42,5.89,360.25-5.88-1.55-185.63.13-185.63.13S245.44,675,239.56,676.5c2.7-6.83,4.6-288.15,5.89-360.25,1.32-73.21-28.93-1.31,35.07-72.77S425.2,173.77,425.2,173.77s80.66-1.75,144.67,69.71S603.63,243,604.94,316.25Z" transform="translate(-99.85 -41.98)"/><path class="cls-1" d="M239.56,676.51c0,.1-.08.14-.12.11S239.42,676.54,239.56,676.51Z" transform="translate(-99.85 -41.98)"/><path class="cls-1" d="M611,676.62s-.08,0-.12-.11C611,676.54,611,676.58,611,676.62Z" transform="translate(-99.85 -41.98)"/><path class="cls-2" d="M425.2,384.71c-73,.34-141.74-70.87-141.74-70.87S353.06,243,425.2,243h.42c-40.19.12-71.29,30.92-71.29,70.86S384.9,384.71,425.2,384.71Z" transform="translate(-99.85 -41.98)"/><path class="cls-3" d="M566.93,313.84s-67.19,68.93-139.24,70.83c39.06-1.24,68.37-31.64,68.37-70.83,0-38.77-28.07-68.92-66.46-70.77C500.13,245.83,566.93,313.84,566.93,313.84Z" transform="translate(-99.85 -41.98)"/><path class="cls-4" d="M496.06,313.84c0,39.19-29.31,69.59-68.37,70.83-.82,0-1.65,0-2.49,0-40.3,0-70.87-30.85-70.87-70.87s31.1-70.74,71.29-70.86H427l1.48,0,1.15,0C468,244.92,496.06,275.07,496.06,313.84Z" transform="translate(-99.85 -41.98)"/><path class="cls-5" d="M406.21,68.74c-3.13-9.71-24.36-25.29-39.38-26.23S320.35,59.88,310,67.39s-35.68,19.72-85,76.53S144.76,255.66,136.31,273.5s-30.52,78.87-34.74,110.32,3.13,27.81,13.14,11.74c5.34-8.57,67.14-140.84,67.14-140.84,20.19,33.8,63.38,18.47,90.14-3.21s65.73-56.89,78.87-89.28,12.68-52.11,24.42-60.1,18.31-6.1,30-.46S441,111.52,441,111.52,435.82,95,416.89,83.24C405.67,76.24,406.21,68.74,406.21,68.74Z" transform="translate(-99.85 -41.98)"/></svg>