<?xml version="1.0" encoding="utf-8"?>
<!-- Generator: Adobe Illustrator 24.0.1, SVG Export Plug-In . SVG Version: 6.00 Build 0)  -->
<svg version="1.1" id="图层_1" xmlns="http://www.w3.org/2000/svg" xmlns:xlink="http://www.w3.org/1999/xlink" x="0px" y="0px"
	 viewBox="0 0 850.39 850.39" style="enable-background:new 0 0 850.39 850.39;" xml:space="preserve">
<style type="text/css">
	.st0{fill:#808080;stroke:#000000;stroke-miterlimit:10;}
	.st1{fill:url(#SVGID_1_);stroke:#000000;stroke-miterlimit:10;}
	.st2{fill:url(#SVGID_2_);stroke:#000000;stroke-miterlimit:10;}
	.st3{fill:#FFFFFF;stroke:#000000;stroke-miterlimit:10;}
</style>
<g>
	<path class="st0" d="M604.94,316.25c1.3,72.1,3.19,353.42,5.89,360.25c-5.88-1.55-185.63,0.13-185.63,0.13
		s-179.76-1.68-185.64-0.13c2.7-6.83,4.6-288.15,5.89-360.25c1.32-73.21-28.93-1.31,35.07-72.77
		c64.01-71.46,144.68-69.71,144.68-69.71s80.66-1.75,144.67,69.71S603.63,243.04,604.94,316.25z"/>
	<path class="st0" d="M239.56,676.51c-0.04,0.1-0.08,0.14-0.12,0.11C239.38,676.58,239.42,676.54,239.56,676.51z"/>
	<path class="st0" d="M610.95,676.62c-0.04,0.03-0.08-0.01-0.12-0.11C610.97,676.54,611.01,676.58,610.95,676.62z"/>
</g>
<g>
	<linearGradient id="SVGID_1_" gradientUnits="userSpaceOnUse" x1="283.46" y1="313.8456" x2="425.62" y2="313.8456">
		<stop  offset="0" style="stop-color:#000000"/>
		<stop  offset="1" style="stop-color:#FFFFFF"/>
	</linearGradient>
	<path class="st1" d="M425.2,384.71c-72.99,0.34-141.74-70.87-141.74-70.87s69.6-70.86,141.74-70.86h0.42
		c-40.19,0.12-71.29,30.92-71.29,70.86C354.33,353.86,384.9,384.71,425.2,384.71z"/>
	<linearGradient id="SVGID_2_" gradientUnits="userSpaceOnUse" x1="427.69" y1="313.87" x2="566.93" y2="313.87">
		<stop  offset="0" style="stop-color:#FFFFFF"/>
		<stop  offset="1" style="stop-color:#000000"/>
	</linearGradient>
	<path class="st2" d="M566.93,313.84c0,0-67.19,68.93-139.24,70.83c39.06-1.24,68.37-31.64,68.37-70.83
		c0-38.77-28.07-68.92-66.46-70.77C500.13,245.83,566.93,313.84,566.93,313.84z"/>
	<path class="st3" d="M496.06,313.84c0,39.19-29.31,69.59-68.37,70.83c-0.82,0.03-1.65,0.04-2.49,0.04
		c-40.3,0-70.87-30.85-70.87-70.87c0-39.94,31.1-70.74,71.29-70.86h0.23c0.38,0,0.75,0,1.12,0.01c0.49,0.01,0.99,0.02,1.48,0.04
		c0.38,0.01,0.77,0.02,1.15,0.04C467.99,244.92,496.06,275.07,496.06,313.84z"/>
</g>
<g>
	<path d="M118.7,340.81c10.28-24.15,25.14-58.82,30.53-70.19c9.85-20.79,41.05-74.6,88.66-129.46
		c41.85-48.23,66.13-64.08,79.18-72.6c2.23-1.46,4.16-2.71,5.72-3.85c10.04-7.3,40.24-24.82,55.36-24.82c0.38,0,0.76,0.01,1.12,0.03
		c14.73,0.92,35.7,16.13,38.91,25.8c-0.03,0.98,0.15,8.14,10.92,14.85c16.18,10.1,22.29,23.79,23.61,27.21
		c-4.37-0.81-24.4-4.72-34.7-9.66c-6.51-3.12-11.21-4.93-15.94-4.93c-4.57,0-9.07,1.68-14.6,5.44
		c-12.17,8.27-21.51,23.23-34.48,55.18c-11.11,27.39-25.39,41.67-45.15,61.43c-3.57,3.57-7.26,7.26-11.16,11.26
		c-6.37,6.52-35.91,22.9-67.89,22.9c-1.53,0-3.07-0.04-4.57-0.11c-1.01-0.05-1.99-0.08-3-0.08
		C173.28,249.21,136.07,307.48,118.7,340.81z"/>
	<path d="M378.15,40.39c0.37,0,0.74,0.01,1.09,0.03c6.65,0.42,15.49,4.02,23.65,9.65c7.62,5.26,13.27,11.27,14.8,15.73
		c-0.01,1.36,0.49,8.54,11.15,15.2c14.95,9.33,21.23,21.75,23.07,26.13c-5.71-1.09-24.02-4.82-33.67-9.45
		c-6.57-3.16-11.33-4.98-16.16-4.98c-4.67,0-9.26,1.7-14.88,5.53c-12.26,8.34-21.65,23.35-34.66,55.4
		c-11.08,27.29-25.32,41.54-45.04,61.27c-3.57,3.57-7.26,7.26-11.17,11.26c-6.32,6.48-35.7,22.75-67.54,22.75
		c-1.52,0-3.05-0.04-4.55-0.11c-1.02-0.05-2.01-0.08-3.02-0.08c-25.71,0-51.2,16.3-75.76,48.44c-8.67,11.34-16.03,23.14-21.92,33.63
		c9.74-22.82,21.5-50.11,26.16-59.95c9.84-20.77,41.01-74.53,88.58-129.35c41.81-48.18,66.05-64.01,79.07-72.51
		c2.24-1.46,4.17-2.72,5.74-3.86C333.08,57.84,363.14,40.39,378.15,40.39 M378.15,39.39c-15.42,0-45.58,17.59-55.66,24.92
		c-10.33,7.51-35.68,19.72-84.98,76.53s-80.28,111.74-88.73,129.58c-7.33,15.48-32.46,74.69-38.98,90.09
		c8.54-19.59,51.5-110.79,111.41-110.79c0.99,0,1.98,0.02,2.97,0.07c1.53,0.08,3.07,0.11,4.6,0.11c32.12,0,61.84-16.49,68.25-23.05
		c25.73-26.35,43.27-40.46,56.42-72.85c13.15-32.39,22.56-46.97,34.29-54.95c5.57-3.79,9.97-5.35,14.32-5.35
		c4.82,0,9.56,1.92,15.73,4.88c11.74,5.63,35.68,9.86,35.68,9.86s-5.19-16.48-24.11-28.29c-11.22-7-10.68-14.5-10.68-14.5
		c-3.13-9.7-24.36-25.29-39.39-26.23C378.92,39.4,378.54,39.39,378.15,39.39L378.15,39.39z M109.8,360.5
		c-1.03,2.36-1.56,3.68-1.56,3.68S108.81,362.85,109.8,360.5L109.8,360.5z"/>
</g>
</svg>
